%TF.GenerationSoftware,KiCad,Pcbnew,(5.1.9)-1*%
%TF.CreationDate,2021-04-24T19:22:00-04:00*%
%TF.ProjectId,button_box,62757474-6f6e-45f6-926f-782e6b696361,rev?*%
%TF.SameCoordinates,Original*%
%TF.FileFunction,Copper,L2,Bot*%
%TF.FilePolarity,Positive*%
%FSLAX46Y46*%
G04 Gerber Fmt 4.6, Leading zero omitted, Abs format (unit mm)*
G04 Created by KiCad (PCBNEW (5.1.9)-1) date 2021-04-24 19:22:00*
%MOMM*%
%LPD*%
G01*
G04 APERTURE LIST*
%TA.AperFunction,ComponentPad*%
%ADD10C,4.400000*%
%TD*%
%TA.AperFunction,ComponentPad*%
%ADD11O,2.000000X1.600000*%
%TD*%
%TA.AperFunction,ComponentPad*%
%ADD12R,2.000000X2.000000*%
%TD*%
%TA.AperFunction,ComponentPad*%
%ADD13O,1.600000X1.600000*%
%TD*%
%TA.AperFunction,ComponentPad*%
%ADD14C,1.600000*%
%TD*%
%TA.AperFunction,ComponentPad*%
%ADD15O,1.750000X1.200000*%
%TD*%
%TA.AperFunction,Conductor*%
%ADD16C,0.400000*%
%TD*%
G04 APERTURE END LIST*
D10*
%TO.P,hole,4*%
%TO.N,N/C*%
X107315000Y-102250000D03*
%TD*%
%TO.P,hole,3*%
%TO.N,N/C*%
X140970000Y-102250000D03*
%TD*%
%TO.P,hole,2*%
%TO.N,N/C*%
X140970000Y-132095000D03*
%TD*%
%TO.P,hole,1*%
%TO.N,N/C*%
X107315000Y-132095000D03*
%TD*%
D11*
%TO.P,U1,2*%
%TO.N,Net-(U1-Pad2)*%
X112710000Y-111140000D03*
D12*
%TO.P,U1,1*%
%TO.N,Net-(U1-Pad1)*%
X112710000Y-108600000D03*
D11*
%TO.P,U1,3*%
%TO.N,Net-(U1-Pad3)*%
X112710000Y-113680000D03*
%TO.P,U1,4*%
%TO.N,Net-(C3-Pad1)*%
X112710000Y-116220000D03*
%TO.P,U1,5*%
%TO.N,Net-(C2-Pad1)*%
X112710000Y-118760000D03*
%TO.P,U1,6*%
%TO.N,Net-(C1-Pad1)*%
X112710000Y-121300000D03*
%TO.P,U1,7*%
%TO.N,Net-(U1-Pad7)*%
X112710000Y-123840000D03*
%TO.P,U1,8*%
%TO.N,Net-(R10-Pad2)*%
X112710000Y-126380000D03*
%TO.P,U1,9*%
%TO.N,Net-(R1-Pad1)*%
X135570000Y-126380000D03*
%TO.P,U1,10*%
%TO.N,Net-(C1-Pad2)*%
X135570000Y-123840000D03*
%TO.P,U1,11*%
%TO.N,Net-(C6-Pad1)*%
X135570000Y-121300000D03*
%TO.P,U1,12*%
%TO.N,Net-(U1-Pad12)*%
X135570000Y-118760000D03*
%TO.P,U1,13*%
%TO.N,Net-(C5-Pad1)*%
X135570000Y-116220000D03*
%TO.P,U1,14*%
%TO.N,Net-(C4-Pad1)*%
X135570000Y-113680000D03*
%TO.P,U1,15*%
%TO.N,Net-(U1-Pad15)*%
X135570000Y-111140000D03*
%TO.P,U1,16*%
%TO.N,Net-(U1-Pad16)*%
X135570000Y-108600000D03*
%TD*%
D13*
%TO.P,R3,2*%
%TO.N,Net-(J4-Pad3)*%
X122555000Y-88900000D03*
D14*
%TO.P,R3,1*%
%TO.N,Net-(R1-Pad1)*%
X122555000Y-96520000D03*
%TD*%
%TO.P,C1,1*%
%TO.N,Net-(C1-Pad1)*%
X106720000Y-85725000D03*
%TO.P,C1,2*%
%TO.N,Net-(C1-Pad2)*%
X109220000Y-85725000D03*
%TD*%
%TO.P,C2,2*%
%TO.N,Net-(C1-Pad2)*%
X115689000Y-85725000D03*
%TO.P,C2,1*%
%TO.N,Net-(C2-Pad1)*%
X113189000Y-85725000D03*
%TD*%
%TO.P,C3,2*%
%TO.N,Net-(C1-Pad2)*%
X122158000Y-85725000D03*
%TO.P,C3,1*%
%TO.N,Net-(C3-Pad1)*%
X119658000Y-85725000D03*
%TD*%
%TO.P,C4,1*%
%TO.N,Net-(C4-Pad1)*%
X126127000Y-85725000D03*
%TO.P,C4,2*%
%TO.N,Net-(C1-Pad2)*%
X128627000Y-85725000D03*
%TD*%
%TO.P,C5,2*%
%TO.N,Net-(C1-Pad2)*%
X135096000Y-85725000D03*
%TO.P,C5,1*%
%TO.N,Net-(C5-Pad1)*%
X132596000Y-85725000D03*
%TD*%
%TO.P,C6,1*%
%TO.N,Net-(C6-Pad1)*%
X139065000Y-85725000D03*
%TO.P,C6,2*%
%TO.N,Net-(C1-Pad2)*%
X141565000Y-85725000D03*
%TD*%
D15*
%TO.P,JST6,3*%
%TO.N,Net-(J1-Pad3)*%
X139700000Y-77280000D03*
%TO.P,JST6,2*%
%TO.N,Net-(C1-Pad2)*%
X139700000Y-79280000D03*
%TO.P,JST6,1*%
%TO.N,Net-(C6-Pad1)*%
%TA.AperFunction,ComponentPad*%
G36*
G01*
X140325001Y-81880000D02*
X139074999Y-81880000D01*
G75*
G02*
X138825000Y-81630001I0J249999D01*
G01*
X138825000Y-80929999D01*
G75*
G02*
X139074999Y-80680000I249999J0D01*
G01*
X140325001Y-80680000D01*
G75*
G02*
X140575000Y-80929999I0J-249999D01*
G01*
X140575000Y-81630001D01*
G75*
G02*
X140325001Y-81880000I-249999J0D01*
G01*
G37*
%TD.AperFunction*%
%TD*%
%TO.P,JST5,1*%
%TO.N,Net-(C5-Pad1)*%
%TA.AperFunction,ComponentPad*%
G36*
G01*
X133848001Y-81880000D02*
X132597999Y-81880000D01*
G75*
G02*
X132348000Y-81630001I0J249999D01*
G01*
X132348000Y-80929999D01*
G75*
G02*
X132597999Y-80680000I249999J0D01*
G01*
X133848001Y-80680000D01*
G75*
G02*
X134098000Y-80929999I0J-249999D01*
G01*
X134098000Y-81630001D01*
G75*
G02*
X133848001Y-81880000I-249999J0D01*
G01*
G37*
%TD.AperFunction*%
%TO.P,JST5,2*%
%TO.N,Net-(C1-Pad2)*%
X133223000Y-79280000D03*
%TO.P,JST5,3*%
%TO.N,Net-(J2-Pad3)*%
X133223000Y-77280000D03*
%TD*%
%TO.P,JST4,3*%
%TO.N,Net-(J3-Pad3)*%
X126746000Y-77280000D03*
%TO.P,JST4,2*%
%TO.N,Net-(C1-Pad2)*%
X126746000Y-79280000D03*
%TO.P,JST4,1*%
%TO.N,Net-(C4-Pad1)*%
%TA.AperFunction,ComponentPad*%
G36*
G01*
X127371001Y-81880000D02*
X126120999Y-81880000D01*
G75*
G02*
X125871000Y-81630001I0J249999D01*
G01*
X125871000Y-80929999D01*
G75*
G02*
X126120999Y-80680000I249999J0D01*
G01*
X127371001Y-80680000D01*
G75*
G02*
X127621000Y-80929999I0J-249999D01*
G01*
X127621000Y-81630001D01*
G75*
G02*
X127371001Y-81880000I-249999J0D01*
G01*
G37*
%TD.AperFunction*%
%TD*%
%TO.P,JST3,1*%
%TO.N,Net-(C3-Pad1)*%
%TA.AperFunction,ComponentPad*%
G36*
G01*
X120894001Y-81880000D02*
X119643999Y-81880000D01*
G75*
G02*
X119394000Y-81630001I0J249999D01*
G01*
X119394000Y-80929999D01*
G75*
G02*
X119643999Y-80680000I249999J0D01*
G01*
X120894001Y-80680000D01*
G75*
G02*
X121144000Y-80929999I0J-249999D01*
G01*
X121144000Y-81630001D01*
G75*
G02*
X120894001Y-81880000I-249999J0D01*
G01*
G37*
%TD.AperFunction*%
%TO.P,JST3,2*%
%TO.N,Net-(C1-Pad2)*%
X120269000Y-79280000D03*
%TO.P,JST3,3*%
%TO.N,Net-(J4-Pad3)*%
X120269000Y-77280000D03*
%TD*%
%TO.P,JST2,3*%
%TO.N,Net-(J5-Pad3)*%
X113792000Y-77280000D03*
%TO.P,JST2,2*%
%TO.N,Net-(C1-Pad2)*%
X113792000Y-79280000D03*
%TO.P,JST2,1*%
%TO.N,Net-(C2-Pad1)*%
%TA.AperFunction,ComponentPad*%
G36*
G01*
X114417001Y-81880000D02*
X113166999Y-81880000D01*
G75*
G02*
X112917000Y-81630001I0J249999D01*
G01*
X112917000Y-80929999D01*
G75*
G02*
X113166999Y-80680000I249999J0D01*
G01*
X114417001Y-80680000D01*
G75*
G02*
X114667000Y-80929999I0J-249999D01*
G01*
X114667000Y-81630001D01*
G75*
G02*
X114417001Y-81880000I-249999J0D01*
G01*
G37*
%TD.AperFunction*%
%TD*%
%TO.P,JST1,3*%
%TO.N,Net-(J6-Pad3)*%
X107315000Y-77280000D03*
%TO.P,JST1,2*%
%TO.N,Net-(C1-Pad2)*%
X107315000Y-79280000D03*
%TO.P,JST1,1*%
%TO.N,Net-(C1-Pad1)*%
%TA.AperFunction,ComponentPad*%
G36*
G01*
X107940001Y-81880000D02*
X106689999Y-81880000D01*
G75*
G02*
X106440000Y-81630001I0J249999D01*
G01*
X106440000Y-80929999D01*
G75*
G02*
X106689999Y-80680000I249999J0D01*
G01*
X107940001Y-80680000D01*
G75*
G02*
X108190000Y-80929999I0J-249999D01*
G01*
X108190000Y-81630001D01*
G75*
G02*
X107940001Y-81880000I-249999J0D01*
G01*
G37*
%TD.AperFunction*%
%TD*%
D13*
%TO.P,R1,2*%
%TO.N,Net-(J6-Pad3)*%
X109855000Y-88900000D03*
D14*
%TO.P,R1,1*%
%TO.N,Net-(R1-Pad1)*%
X109855000Y-96520000D03*
%TD*%
%TO.P,R2,1*%
%TO.N,Net-(R1-Pad1)*%
X116205000Y-96520000D03*
D13*
%TO.P,R2,2*%
%TO.N,Net-(J5-Pad3)*%
X116205000Y-88900000D03*
%TD*%
D14*
%TO.P,R4,1*%
%TO.N,Net-(R1-Pad1)*%
X128905000Y-96520000D03*
D13*
%TO.P,R4,2*%
%TO.N,Net-(J3-Pad3)*%
X128905000Y-88900000D03*
%TD*%
%TO.P,R5,2*%
%TO.N,Net-(J2-Pad3)*%
X135255000Y-88900000D03*
D14*
%TO.P,R5,1*%
%TO.N,Net-(R1-Pad1)*%
X135255000Y-96520000D03*
%TD*%
%TO.P,R6,1*%
%TO.N,Net-(R1-Pad1)*%
X141605000Y-96520000D03*
D13*
%TO.P,R6,2*%
%TO.N,Net-(J1-Pad3)*%
X141605000Y-88900000D03*
%TD*%
%TO.P,4.7K,2*%
%TO.N,Net-(R10-Pad2)*%
X106680000Y-96520000D03*
D14*
%TO.P,4.7K,1*%
%TO.N,Net-(C1-Pad1)*%
X106680000Y-88900000D03*
%TD*%
%TO.P,4.7K,1*%
%TO.N,Net-(C2-Pad1)*%
X113030000Y-88900000D03*
D13*
%TO.P,4.7K,2*%
%TO.N,Net-(R10-Pad2)*%
X113030000Y-96520000D03*
%TD*%
%TO.P,4.7K,2*%
%TO.N,Net-(R10-Pad2)*%
X119380000Y-96520000D03*
D14*
%TO.P,4.7K,1*%
%TO.N,Net-(C3-Pad1)*%
X119380000Y-88900000D03*
%TD*%
%TO.P,4.7K,1*%
%TO.N,Net-(C4-Pad1)*%
X125730000Y-88900000D03*
D13*
%TO.P,4.7K,2*%
%TO.N,Net-(R10-Pad2)*%
X125730000Y-96520000D03*
%TD*%
%TO.P,4.7K,2*%
%TO.N,Net-(R10-Pad2)*%
X132080000Y-96520000D03*
D14*
%TO.P,4.7K,1*%
%TO.N,Net-(C5-Pad1)*%
X132080000Y-88900000D03*
%TD*%
%TO.P,4.7K,1*%
%TO.N,Net-(C6-Pad1)*%
X138430000Y-88900000D03*
D13*
%TO.P,4.7K,2*%
%TO.N,Net-(R10-Pad2)*%
X138430000Y-96520000D03*
%TD*%
D16*
%TO.N,Net-(C1-Pad2)*%
X107315000Y-79280000D02*
X113792000Y-79280000D01*
X113792000Y-79280000D02*
X120269000Y-79280000D01*
X120269000Y-79280000D02*
X126746000Y-79280000D01*
X126746000Y-79280000D02*
X133223000Y-79280000D01*
X133223000Y-79280000D02*
X139700000Y-79280000D01*
X109220000Y-81185000D02*
X107315000Y-79280000D01*
X109220000Y-85725000D02*
X109220000Y-81185000D01*
X113792000Y-79385744D02*
X113792000Y-79280000D01*
X115689000Y-81282744D02*
X113792000Y-79385744D01*
X115689000Y-85725000D02*
X115689000Y-81282744D01*
X120269000Y-79385744D02*
X120269000Y-79280000D01*
X122158000Y-81274744D02*
X120269000Y-79385744D01*
X122158000Y-85725000D02*
X122158000Y-81274744D01*
X126746000Y-79385744D02*
X126746000Y-79280000D01*
X128627000Y-81266744D02*
X126746000Y-79385744D01*
X128627000Y-85725000D02*
X128627000Y-81266744D01*
X133223000Y-79385744D02*
X133223000Y-79280000D01*
X135096000Y-81258744D02*
X133223000Y-79385744D01*
X135096000Y-85725000D02*
X135096000Y-81258744D01*
X139700000Y-79385744D02*
X139700000Y-79280000D01*
X141565000Y-81250744D02*
X139700000Y-79385744D01*
X141565000Y-85725000D02*
X141565000Y-81250744D01*
X114488999Y-86925001D02*
X115689000Y-85725000D01*
X110420001Y-86925001D02*
X114488999Y-86925001D01*
X109220000Y-85725000D02*
X110420001Y-86925001D01*
X127426999Y-86925001D02*
X128627000Y-85725000D01*
X123358001Y-86925001D02*
X127426999Y-86925001D01*
X122158000Y-85725000D02*
X123358001Y-86925001D01*
X133895999Y-86925001D02*
X135096000Y-85725000D01*
X129827001Y-86925001D02*
X133895999Y-86925001D01*
X128627000Y-85725000D02*
X129827001Y-86925001D01*
X140364999Y-86925001D02*
X141565000Y-85725000D01*
X136296001Y-86925001D02*
X140364999Y-86925001D01*
X135096000Y-85725000D02*
X136296001Y-86925001D01*
X131829990Y-127580010D02*
X135570000Y-123840000D01*
X112012940Y-127580010D02*
X131829990Y-127580010D01*
X116889001Y-86925001D02*
X115689000Y-85725000D01*
X120957999Y-86925001D02*
X116889001Y-86925001D01*
X122158000Y-85725000D02*
X120957999Y-86925001D01*
X104714999Y-81880001D02*
X107315000Y-79280000D01*
X112012940Y-127580010D02*
X104714999Y-120282069D01*
X104714999Y-81880001D02*
X104714999Y-120282069D01*
%TO.N,Net-(R1-Pad1)*%
X136455001Y-97720001D02*
X135255000Y-96520000D01*
X140404999Y-97720001D02*
X136455001Y-97720001D01*
X141605000Y-96520000D02*
X140404999Y-97720001D01*
X130105001Y-97720001D02*
X128905000Y-96520000D01*
X134054999Y-97720001D02*
X130105001Y-97720001D01*
X135255000Y-96520000D02*
X134054999Y-97720001D01*
X123755001Y-97720001D02*
X122555000Y-96520000D01*
X127704999Y-97720001D02*
X123755001Y-97720001D01*
X128905000Y-96520000D02*
X127704999Y-97720001D01*
X117405001Y-97720001D02*
X116205000Y-96520000D01*
X121354999Y-97720001D02*
X117405001Y-97720001D01*
X122555000Y-96520000D02*
X121354999Y-97720001D01*
X111055001Y-97720001D02*
X109855000Y-96520000D01*
X115004999Y-97720001D02*
X111055001Y-97720001D01*
X116205000Y-96520000D02*
X115004999Y-97720001D01*
X141605000Y-96520000D02*
X143570001Y-98485001D01*
X143570001Y-124414999D02*
X143570001Y-98485001D01*
X141605000Y-126380000D02*
X143570001Y-124414999D01*
X135570000Y-126380000D02*
X141605000Y-126380000D01*
%TO.N,Net-(R10-Pad2)*%
X111829999Y-95319999D02*
X113030000Y-96520000D01*
X107880001Y-95319999D02*
X111829999Y-95319999D01*
X106680000Y-96520000D02*
X107880001Y-95319999D01*
X118179999Y-95319999D02*
X119380000Y-96520000D01*
X114230001Y-95319999D02*
X118179999Y-95319999D01*
X113030000Y-96520000D02*
X114230001Y-95319999D01*
X124529999Y-95319999D02*
X125730000Y-96520000D01*
X120580001Y-95319999D02*
X124529999Y-95319999D01*
X119380000Y-96520000D02*
X120580001Y-95319999D01*
X130879999Y-95319999D02*
X132080000Y-96520000D01*
X126930001Y-95319999D02*
X130879999Y-95319999D01*
X125730000Y-96520000D02*
X126930001Y-95319999D01*
X137229999Y-95319999D02*
X138430000Y-96520000D01*
X133280001Y-95319999D02*
X137229999Y-95319999D01*
X132080000Y-96520000D02*
X133280001Y-95319999D01*
X112710000Y-125737070D02*
X109915001Y-122942071D01*
X112710000Y-126380000D02*
X112710000Y-125737070D01*
X109915001Y-99755001D02*
X106680000Y-96520000D01*
X109915001Y-122942071D02*
X109915001Y-99755001D01*
%TD*%
M02*
