M48
; DRILL file {KiCad (5.1.9)-1} date 04/24/21 19:21:57
; FORMAT={-:-/ absolute / inch / decimal}
; #@! TF.CreationDate,2021-04-24T19:21:57-04:00
; #@! TF.GenerationSoftware,Kicad,Pcbnew,(5.1.9)-1
FMAT,2
INCH
T1C0.0295
T2C0.0315
T3C0.0394
T4C0.0866
%
G90
G05
T1
X4.225Y-3.0425
X4.225Y-3.1213
X4.225Y-3.2
X4.48Y-3.0425
X4.48Y-3.1213
X4.48Y-3.2
X4.735Y-3.0425
X4.735Y-3.1213
X4.735Y-3.2
X4.99Y-3.0425
X4.99Y-3.1213
X4.99Y-3.2
X5.245Y-3.0425
X5.245Y-3.1213
X5.245Y-3.2
X5.5Y-3.0425
X5.5Y-3.1213
X5.5Y-3.2
T2
X4.2Y-3.5
X4.2Y-3.8
X4.2016Y-3.375
X4.3Y-3.375
X4.325Y-3.5
X4.325Y-3.8
X4.45Y-3.5
X4.45Y-3.8
X4.4563Y-3.375
X4.5547Y-3.375
X4.575Y-3.5
X4.575Y-3.8
X4.7Y-3.5
X4.7Y-3.8
X4.7109Y-3.375
X4.8094Y-3.375
X4.825Y-3.5
X4.825Y-3.8
X4.95Y-3.5
X4.95Y-3.8
X4.9656Y-3.375
X5.0641Y-3.375
X5.075Y-3.5
X5.075Y-3.8
X5.2Y-3.5
X5.2Y-3.8
X5.2203Y-3.375
X5.3187Y-3.375
X5.325Y-3.5
X5.325Y-3.8
X5.45Y-3.5
X5.45Y-3.8
X5.475Y-3.375
X5.5734Y-3.375
X5.575Y-3.5
X5.575Y-3.8
T3
X4.4374Y-4.2756
X4.4374Y-4.3756
X4.4374Y-4.4756
X4.4374Y-4.5756
X4.4374Y-4.6756
X4.4374Y-4.7756
X4.4374Y-4.8756
X4.4374Y-4.9756
X5.3374Y-4.2756
X5.3374Y-4.3756
X5.3374Y-4.4756
X5.3374Y-4.5756
X5.3374Y-4.6756
X5.3374Y-4.7756
X5.3374Y-4.8756
X5.3374Y-4.9756
T4
X4.225Y-4.0256
X4.225Y-5.2006
X5.55Y-4.0256
X5.55Y-5.2006
T0
M30
