%FSLAX45Y45*%
G04 Gerber Fmt 4.5, Leading zero omitted, Abs format (unit mm)*
G04 Created by KiCad (PCBNEW (5.1.9)-1) date 2021-04-24 19:21:57*
%MOMM*%
%LPD*%
G01*
G04 APERTURE LIST*
%TA.AperFunction,Profile*%
%ADD10C,0.050000*%
%TD*%
%ADD11C,0.200000*%
%ADD12C,0.300000*%
G04 APERTURE END LIST*
D10*
X10414000Y-7685000D02*
G75*
G02*
X10731500Y-7367500I317500J0D01*
G01*
X14097000Y-7367500D02*
G75*
G02*
X14414500Y-7685000I0J-317500D01*
G01*
X10731500Y-13527000D02*
G75*
G02*
X10414000Y-13209500I0J317500D01*
G01*
X14414500Y-13209500D02*
G75*
G02*
X14097000Y-13527000I-317500J0D01*
G01*
X14097000Y-7367500D02*
X10731500Y-7367500D01*
X14414500Y-13209500D02*
X14414500Y-7685000D01*
X10414000Y-13209500D02*
X10414000Y-7685000D01*
X10731500Y-13527000D02*
X14097000Y-13527000D01*
D11*
X10694000Y-7690500D02*
X10769000Y-7765500D01*
X10769000Y-7690500D02*
X10694000Y-7765500D01*
X10694000Y-7890500D02*
X10769000Y-7965500D01*
X10769000Y-7890500D02*
X10694000Y-7965500D01*
X10694000Y-8090500D02*
X10769000Y-8165500D01*
X10769000Y-8090500D02*
X10694000Y-8165500D01*
X11341700Y-7690500D02*
X11416700Y-7765500D01*
X11416700Y-7690500D02*
X11341700Y-7765500D01*
X11341700Y-7890500D02*
X11416700Y-7965500D01*
X11416700Y-7890500D02*
X11341700Y-7965500D01*
X11341700Y-8090500D02*
X11416700Y-8165500D01*
X11416700Y-8090500D02*
X11341700Y-8165500D01*
X11989400Y-7690500D02*
X12064400Y-7765500D01*
X12064400Y-7690500D02*
X11989400Y-7765500D01*
X11989400Y-7890500D02*
X12064400Y-7965500D01*
X12064400Y-7890500D02*
X11989400Y-7965500D01*
X11989400Y-8090500D02*
X12064400Y-8165500D01*
X12064400Y-8090500D02*
X11989400Y-8165500D01*
X12637100Y-7690500D02*
X12712100Y-7765500D01*
X12712100Y-7690500D02*
X12637100Y-7765500D01*
X12637100Y-7890500D02*
X12712100Y-7965500D01*
X12712100Y-7890500D02*
X12637100Y-7965500D01*
X12637100Y-8090500D02*
X12712100Y-8165500D01*
X12712100Y-8090500D02*
X12637100Y-8165500D01*
X13284800Y-7690500D02*
X13359800Y-7765500D01*
X13359800Y-7690500D02*
X13284800Y-7765500D01*
X13284800Y-7890500D02*
X13359800Y-7965500D01*
X13359800Y-7890500D02*
X13284800Y-7965500D01*
X13284800Y-8090500D02*
X13359800Y-8165500D01*
X13359800Y-8090500D02*
X13284800Y-8165500D01*
X13932500Y-7690500D02*
X14007500Y-7765500D01*
X14007500Y-7690500D02*
X13932500Y-7765500D01*
X13932500Y-7890500D02*
X14007500Y-7965500D01*
X14007500Y-7890500D02*
X13932500Y-7965500D01*
X13932500Y-8090500D02*
X14007500Y-8165500D01*
X14007500Y-8090500D02*
X13932500Y-8165500D01*
X10708000Y-8890000D02*
G75*
G03*
X10708000Y-8890000I-40000J0D01*
G01*
X10708000Y-9652000D02*
G75*
G03*
X10708000Y-9652000I-40000J0D01*
G01*
X10712000Y-8572500D02*
G75*
G03*
X10712000Y-8572500I-40000J0D01*
G01*
X10962000Y-8572500D02*
G75*
G03*
X10962000Y-8572500I-40000J0D01*
G01*
X11025500Y-8890000D02*
G75*
G03*
X11025500Y-8890000I-40000J0D01*
G01*
X11025500Y-9652000D02*
G75*
G03*
X11025500Y-9652000I-40000J0D01*
G01*
X11343000Y-8890000D02*
G75*
G03*
X11343000Y-8890000I-40000J0D01*
G01*
X11343000Y-9652000D02*
G75*
G03*
X11343000Y-9652000I-40000J0D01*
G01*
X11358900Y-8572500D02*
G75*
G03*
X11358900Y-8572500I-40000J0D01*
G01*
X11608900Y-8572500D02*
G75*
G03*
X11608900Y-8572500I-40000J0D01*
G01*
X11660500Y-8890000D02*
G75*
G03*
X11660500Y-8890000I-40000J0D01*
G01*
X11660500Y-9652000D02*
G75*
G03*
X11660500Y-9652000I-40000J0D01*
G01*
X11978000Y-8890000D02*
G75*
G03*
X11978000Y-8890000I-40000J0D01*
G01*
X11978000Y-9652000D02*
G75*
G03*
X11978000Y-9652000I-40000J0D01*
G01*
X12005800Y-8572500D02*
G75*
G03*
X12005800Y-8572500I-40000J0D01*
G01*
X12255800Y-8572500D02*
G75*
G03*
X12255800Y-8572500I-40000J0D01*
G01*
X12295500Y-8890000D02*
G75*
G03*
X12295500Y-8890000I-40000J0D01*
G01*
X12295500Y-9652000D02*
G75*
G03*
X12295500Y-9652000I-40000J0D01*
G01*
X12613000Y-8890000D02*
G75*
G03*
X12613000Y-8890000I-40000J0D01*
G01*
X12613000Y-9652000D02*
G75*
G03*
X12613000Y-9652000I-40000J0D01*
G01*
X12652700Y-8572500D02*
G75*
G03*
X12652700Y-8572500I-40000J0D01*
G01*
X12902700Y-8572500D02*
G75*
G03*
X12902700Y-8572500I-40000J0D01*
G01*
X12930500Y-8890000D02*
G75*
G03*
X12930500Y-8890000I-40000J0D01*
G01*
X12930500Y-9652000D02*
G75*
G03*
X12930500Y-9652000I-40000J0D01*
G01*
X13248000Y-8890000D02*
G75*
G03*
X13248000Y-8890000I-40000J0D01*
G01*
X13248000Y-9652000D02*
G75*
G03*
X13248000Y-9652000I-40000J0D01*
G01*
X13299600Y-8572500D02*
G75*
G03*
X13299600Y-8572500I-40000J0D01*
G01*
X13549600Y-8572500D02*
G75*
G03*
X13549600Y-8572500I-40000J0D01*
G01*
X13565500Y-8890000D02*
G75*
G03*
X13565500Y-8890000I-40000J0D01*
G01*
X13565500Y-9652000D02*
G75*
G03*
X13565500Y-9652000I-40000J0D01*
G01*
X13883000Y-8890000D02*
G75*
G03*
X13883000Y-8890000I-40000J0D01*
G01*
X13883000Y-9652000D02*
G75*
G03*
X13883000Y-9652000I-40000J0D01*
G01*
X13946500Y-8572500D02*
G75*
G03*
X13946500Y-8572500I-40000J0D01*
G01*
X14196500Y-8572500D02*
G75*
G03*
X14196500Y-8572500I-40000J0D01*
G01*
X14200500Y-8890000D02*
G75*
G03*
X14200500Y-8890000I-40000J0D01*
G01*
X14200500Y-9652000D02*
G75*
G03*
X14200500Y-9652000I-40000J0D01*
G01*
X11271000Y-10810000D02*
X11271000Y-10910000D01*
X11221000Y-10860000D02*
X11321000Y-10860000D01*
X11271000Y-11064000D02*
X11271000Y-11164000D01*
X11221000Y-11114000D02*
X11321000Y-11114000D01*
X11271000Y-11318000D02*
X11271000Y-11418000D01*
X11221000Y-11368000D02*
X11321000Y-11368000D01*
X11271000Y-11572000D02*
X11271000Y-11672000D01*
X11221000Y-11622000D02*
X11321000Y-11622000D01*
X11271000Y-11826000D02*
X11271000Y-11926000D01*
X11221000Y-11876000D02*
X11321000Y-11876000D01*
X11271000Y-12080000D02*
X11271000Y-12180000D01*
X11221000Y-12130000D02*
X11321000Y-12130000D01*
X11271000Y-12334000D02*
X11271000Y-12434000D01*
X11221000Y-12384000D02*
X11321000Y-12384000D01*
X11271000Y-12588000D02*
X11271000Y-12688000D01*
X11221000Y-12638000D02*
X11321000Y-12638000D01*
X13557000Y-10810000D02*
X13557000Y-10910000D01*
X13507000Y-10860000D02*
X13607000Y-10860000D01*
X13557000Y-11064000D02*
X13557000Y-11164000D01*
X13507000Y-11114000D02*
X13607000Y-11114000D01*
X13557000Y-11318000D02*
X13557000Y-11418000D01*
X13507000Y-11368000D02*
X13607000Y-11368000D01*
X13557000Y-11572000D02*
X13557000Y-11672000D01*
X13507000Y-11622000D02*
X13607000Y-11622000D01*
X13557000Y-11826000D02*
X13557000Y-11926000D01*
X13507000Y-11876000D02*
X13607000Y-11876000D01*
X13557000Y-12080000D02*
X13557000Y-12180000D01*
X13507000Y-12130000D02*
X13607000Y-12130000D01*
X13557000Y-12334000D02*
X13557000Y-12434000D01*
X13507000Y-12384000D02*
X13607000Y-12384000D01*
X13557000Y-12588000D02*
X13557000Y-12688000D01*
X13507000Y-12638000D02*
X13607000Y-12638000D01*
X10809283Y-10302783D02*
X10809283Y-10147218D01*
X10653718Y-10147218D01*
X10653718Y-10302783D01*
X10809283Y-10302783D01*
X10809283Y-13287282D02*
X10809283Y-13131717D01*
X10653718Y-13131717D01*
X10653718Y-13287282D01*
X10809283Y-13287282D01*
X14174782Y-10302783D02*
X14174782Y-10147218D01*
X14019217Y-10147218D01*
X14019217Y-10302783D01*
X14174782Y-10302783D01*
X14174782Y-13287282D02*
X14174782Y-13131717D01*
X14019217Y-13131717D01*
X14019217Y-13287282D01*
X14174782Y-13287282D01*
D12*
X10697928Y-13995214D02*
X10697928Y-13695214D01*
X10769357Y-13695214D01*
X10812214Y-13709500D01*
X10840786Y-13738071D01*
X10855071Y-13766643D01*
X10869357Y-13823786D01*
X10869357Y-13866643D01*
X10855071Y-13923786D01*
X10840786Y-13952357D01*
X10812214Y-13980929D01*
X10769357Y-13995214D01*
X10697928Y-13995214D01*
X10997928Y-13995214D02*
X10997928Y-13795214D01*
X10997928Y-13852357D02*
X11012214Y-13823786D01*
X11026500Y-13809500D01*
X11055071Y-13795214D01*
X11083643Y-13795214D01*
X11183643Y-13995214D02*
X11183643Y-13795214D01*
X11183643Y-13695214D02*
X11169357Y-13709500D01*
X11183643Y-13723786D01*
X11197928Y-13709500D01*
X11183643Y-13695214D01*
X11183643Y-13723786D01*
X11369357Y-13995214D02*
X11340786Y-13980929D01*
X11326500Y-13952357D01*
X11326500Y-13695214D01*
X11526500Y-13995214D02*
X11497928Y-13980929D01*
X11483643Y-13952357D01*
X11483643Y-13695214D01*
X11869357Y-13995214D02*
X11869357Y-13695214D01*
X11969357Y-13909500D01*
X12069357Y-13695214D01*
X12069357Y-13995214D01*
X12340786Y-13995214D02*
X12340786Y-13838071D01*
X12326500Y-13809500D01*
X12297928Y-13795214D01*
X12240786Y-13795214D01*
X12212214Y-13809500D01*
X12340786Y-13980929D02*
X12312214Y-13995214D01*
X12240786Y-13995214D01*
X12212214Y-13980929D01*
X12197928Y-13952357D01*
X12197928Y-13923786D01*
X12212214Y-13895214D01*
X12240786Y-13880929D01*
X12312214Y-13880929D01*
X12340786Y-13866643D01*
X12483643Y-13795214D02*
X12483643Y-14095214D01*
X12483643Y-13809500D02*
X12512214Y-13795214D01*
X12569357Y-13795214D01*
X12597928Y-13809500D01*
X12612214Y-13823786D01*
X12626500Y-13852357D01*
X12626500Y-13938071D01*
X12612214Y-13966643D01*
X12597928Y-13980929D01*
X12569357Y-13995214D01*
X12512214Y-13995214D01*
X12483643Y-13980929D01*
X12755071Y-13966643D02*
X12769357Y-13980929D01*
X12755071Y-13995214D01*
X12740786Y-13980929D01*
X12755071Y-13966643D01*
X12755071Y-13995214D01*
X12755071Y-13809500D02*
X12769357Y-13823786D01*
X12755071Y-13838071D01*
X12740786Y-13823786D01*
X12755071Y-13809500D01*
X12755071Y-13838071D01*
X10336500Y-14452000D02*
X10411500Y-14527000D01*
X10411500Y-14452000D02*
X10336500Y-14527000D01*
X10755071Y-14325214D02*
X10783643Y-14325214D01*
X10812214Y-14339500D01*
X10826500Y-14353786D01*
X10840786Y-14382357D01*
X10855071Y-14439500D01*
X10855071Y-14510929D01*
X10840786Y-14568071D01*
X10826500Y-14596643D01*
X10812214Y-14610929D01*
X10783643Y-14625214D01*
X10755071Y-14625214D01*
X10726500Y-14610929D01*
X10712214Y-14596643D01*
X10697928Y-14568071D01*
X10683643Y-14510929D01*
X10683643Y-14439500D01*
X10697928Y-14382357D01*
X10712214Y-14353786D01*
X10726500Y-14339500D01*
X10755071Y-14325214D01*
X10983643Y-14596643D02*
X10997928Y-14610929D01*
X10983643Y-14625214D01*
X10969357Y-14610929D01*
X10983643Y-14596643D01*
X10983643Y-14625214D01*
X11097928Y-14325214D02*
X11297928Y-14325214D01*
X11169357Y-14625214D01*
X11555071Y-14325214D02*
X11412214Y-14325214D01*
X11397928Y-14468071D01*
X11412214Y-14453786D01*
X11440786Y-14439500D01*
X11512214Y-14439500D01*
X11540786Y-14453786D01*
X11555071Y-14468071D01*
X11569357Y-14496643D01*
X11569357Y-14568071D01*
X11555071Y-14596643D01*
X11540786Y-14610929D01*
X11512214Y-14625214D01*
X11440786Y-14625214D01*
X11412214Y-14610929D01*
X11397928Y-14596643D01*
X11697928Y-14625214D02*
X11697928Y-14425214D01*
X11697928Y-14453786D02*
X11712214Y-14439500D01*
X11740786Y-14425214D01*
X11783643Y-14425214D01*
X11812214Y-14439500D01*
X11826500Y-14468071D01*
X11826500Y-14625214D01*
X11826500Y-14468071D02*
X11840786Y-14439500D01*
X11869357Y-14425214D01*
X11912214Y-14425214D01*
X11940786Y-14439500D01*
X11955071Y-14468071D01*
X11955071Y-14625214D01*
X12097928Y-14625214D02*
X12097928Y-14425214D01*
X12097928Y-14453786D02*
X12112214Y-14439500D01*
X12140786Y-14425214D01*
X12183643Y-14425214D01*
X12212214Y-14439500D01*
X12226500Y-14468071D01*
X12226500Y-14625214D01*
X12226500Y-14468071D02*
X12240786Y-14439500D01*
X12269357Y-14425214D01*
X12312214Y-14425214D01*
X12340786Y-14439500D01*
X12355071Y-14468071D01*
X12355071Y-14625214D01*
X12940786Y-14310929D02*
X12683643Y-14696643D01*
X13326500Y-14325214D02*
X13355071Y-14325214D01*
X13383643Y-14339500D01*
X13397928Y-14353786D01*
X13412214Y-14382357D01*
X13426500Y-14439500D01*
X13426500Y-14510929D01*
X13412214Y-14568071D01*
X13397928Y-14596643D01*
X13383643Y-14610929D01*
X13355071Y-14625214D01*
X13326500Y-14625214D01*
X13297928Y-14610929D01*
X13283643Y-14596643D01*
X13269357Y-14568071D01*
X13255071Y-14510929D01*
X13255071Y-14439500D01*
X13269357Y-14382357D01*
X13283643Y-14353786D01*
X13297928Y-14339500D01*
X13326500Y-14325214D01*
X13555071Y-14596643D02*
X13569357Y-14610929D01*
X13555071Y-14625214D01*
X13540786Y-14610929D01*
X13555071Y-14596643D01*
X13555071Y-14625214D01*
X13755071Y-14325214D02*
X13783643Y-14325214D01*
X13812214Y-14339500D01*
X13826500Y-14353786D01*
X13840786Y-14382357D01*
X13855071Y-14439500D01*
X13855071Y-14510929D01*
X13840786Y-14568071D01*
X13826500Y-14596643D01*
X13812214Y-14610929D01*
X13783643Y-14625214D01*
X13755071Y-14625214D01*
X13726500Y-14610929D01*
X13712214Y-14596643D01*
X13697928Y-14568071D01*
X13683643Y-14510929D01*
X13683643Y-14439500D01*
X13697928Y-14382357D01*
X13712214Y-14353786D01*
X13726500Y-14339500D01*
X13755071Y-14325214D01*
X13955071Y-14325214D02*
X14140786Y-14325214D01*
X14040786Y-14439500D01*
X14083643Y-14439500D01*
X14112214Y-14453786D01*
X14126500Y-14468071D01*
X14140786Y-14496643D01*
X14140786Y-14568071D01*
X14126500Y-14596643D01*
X14112214Y-14610929D01*
X14083643Y-14625214D01*
X13997928Y-14625214D01*
X13969357Y-14610929D01*
X13955071Y-14596643D01*
X14326500Y-14325214D02*
X14355071Y-14325214D01*
X14383643Y-14339500D01*
X14397928Y-14353786D01*
X14412214Y-14382357D01*
X14426500Y-14439500D01*
X14426500Y-14510929D01*
X14412214Y-14568071D01*
X14397928Y-14596643D01*
X14383643Y-14610929D01*
X14355071Y-14625214D01*
X14326500Y-14625214D01*
X14297928Y-14610929D01*
X14283643Y-14596643D01*
X14269357Y-14568071D01*
X14255071Y-14510929D01*
X14255071Y-14439500D01*
X14269357Y-14382357D01*
X14283643Y-14353786D01*
X14297928Y-14339500D01*
X14326500Y-14325214D01*
X14540786Y-14325214D02*
X14540786Y-14382357D01*
X14655071Y-14325214D02*
X14655071Y-14382357D01*
X15097928Y-14739500D02*
X15083643Y-14725214D01*
X15055071Y-14682357D01*
X15040786Y-14653786D01*
X15026500Y-14610929D01*
X15012214Y-14539500D01*
X15012214Y-14482357D01*
X15026500Y-14410929D01*
X15040786Y-14368071D01*
X15055071Y-14339500D01*
X15083643Y-14296643D01*
X15097928Y-14282357D01*
X15369357Y-14625214D02*
X15197928Y-14625214D01*
X15283643Y-14625214D02*
X15283643Y-14325214D01*
X15255071Y-14368071D01*
X15226500Y-14396643D01*
X15197928Y-14410929D01*
X15540786Y-14453786D02*
X15512214Y-14439500D01*
X15497928Y-14425214D01*
X15483643Y-14396643D01*
X15483643Y-14382357D01*
X15497928Y-14353786D01*
X15512214Y-14339500D01*
X15540786Y-14325214D01*
X15597928Y-14325214D01*
X15626500Y-14339500D01*
X15640786Y-14353786D01*
X15655071Y-14382357D01*
X15655071Y-14396643D01*
X15640786Y-14425214D01*
X15626500Y-14439500D01*
X15597928Y-14453786D01*
X15540786Y-14453786D01*
X15512214Y-14468071D01*
X15497928Y-14482357D01*
X15483643Y-14510929D01*
X15483643Y-14568071D01*
X15497928Y-14596643D01*
X15512214Y-14610929D01*
X15540786Y-14625214D01*
X15597928Y-14625214D01*
X15626500Y-14610929D01*
X15640786Y-14596643D01*
X15655071Y-14568071D01*
X15655071Y-14510929D01*
X15640786Y-14482357D01*
X15626500Y-14468071D01*
X15597928Y-14453786D01*
X16012214Y-14625214D02*
X16012214Y-14325214D01*
X16140786Y-14625214D02*
X16140786Y-14468071D01*
X16126500Y-14439500D01*
X16097928Y-14425214D01*
X16055071Y-14425214D01*
X16026500Y-14439500D01*
X16012214Y-14453786D01*
X16326500Y-14625214D02*
X16297928Y-14610929D01*
X16283643Y-14596643D01*
X16269357Y-14568071D01*
X16269357Y-14482357D01*
X16283643Y-14453786D01*
X16297928Y-14439500D01*
X16326500Y-14425214D01*
X16369357Y-14425214D01*
X16397928Y-14439500D01*
X16412214Y-14453786D01*
X16426500Y-14482357D01*
X16426500Y-14568071D01*
X16412214Y-14596643D01*
X16397928Y-14610929D01*
X16369357Y-14625214D01*
X16326500Y-14625214D01*
X16597928Y-14625214D02*
X16569357Y-14610929D01*
X16555071Y-14582357D01*
X16555071Y-14325214D01*
X16826500Y-14610929D02*
X16797928Y-14625214D01*
X16740786Y-14625214D01*
X16712214Y-14610929D01*
X16697928Y-14582357D01*
X16697928Y-14468071D01*
X16712214Y-14439500D01*
X16740786Y-14425214D01*
X16797928Y-14425214D01*
X16826500Y-14439500D01*
X16840786Y-14468071D01*
X16840786Y-14496643D01*
X16697928Y-14525214D01*
X16955071Y-14610929D02*
X16983643Y-14625214D01*
X17040786Y-14625214D01*
X17069357Y-14610929D01*
X17083643Y-14582357D01*
X17083643Y-14568071D01*
X17069357Y-14539500D01*
X17040786Y-14525214D01*
X16997928Y-14525214D01*
X16969357Y-14510929D01*
X16955071Y-14482357D01*
X16955071Y-14468071D01*
X16969357Y-14439500D01*
X16997928Y-14425214D01*
X17040786Y-14425214D01*
X17069357Y-14439500D01*
X17183643Y-14739500D02*
X17197928Y-14725214D01*
X17226500Y-14682357D01*
X17240786Y-14653786D01*
X17255071Y-14610929D01*
X17269357Y-14539500D01*
X17269357Y-14482357D01*
X17255071Y-14410929D01*
X17240786Y-14368071D01*
X17226500Y-14339500D01*
X17197928Y-14296643D01*
X17183643Y-14282357D01*
X10411500Y-14885500D02*
G75*
G03*
X10411500Y-14885500I-40000J0D01*
G01*
X10755071Y-14721214D02*
X10783643Y-14721214D01*
X10812214Y-14735500D01*
X10826500Y-14749786D01*
X10840786Y-14778357D01*
X10855071Y-14835500D01*
X10855071Y-14906929D01*
X10840786Y-14964071D01*
X10826500Y-14992643D01*
X10812214Y-15006929D01*
X10783643Y-15021214D01*
X10755071Y-15021214D01*
X10726500Y-15006929D01*
X10712214Y-14992643D01*
X10697928Y-14964071D01*
X10683643Y-14906929D01*
X10683643Y-14835500D01*
X10697928Y-14778357D01*
X10712214Y-14749786D01*
X10726500Y-14735500D01*
X10755071Y-14721214D01*
X10983643Y-14992643D02*
X10997928Y-15006929D01*
X10983643Y-15021214D01*
X10969357Y-15006929D01*
X10983643Y-14992643D01*
X10983643Y-15021214D01*
X11169357Y-14849786D02*
X11140786Y-14835500D01*
X11126500Y-14821214D01*
X11112214Y-14792643D01*
X11112214Y-14778357D01*
X11126500Y-14749786D01*
X11140786Y-14735500D01*
X11169357Y-14721214D01*
X11226500Y-14721214D01*
X11255071Y-14735500D01*
X11269357Y-14749786D01*
X11283643Y-14778357D01*
X11283643Y-14792643D01*
X11269357Y-14821214D01*
X11255071Y-14835500D01*
X11226500Y-14849786D01*
X11169357Y-14849786D01*
X11140786Y-14864071D01*
X11126500Y-14878357D01*
X11112214Y-14906929D01*
X11112214Y-14964071D01*
X11126500Y-14992643D01*
X11140786Y-15006929D01*
X11169357Y-15021214D01*
X11226500Y-15021214D01*
X11255071Y-15006929D01*
X11269357Y-14992643D01*
X11283643Y-14964071D01*
X11283643Y-14906929D01*
X11269357Y-14878357D01*
X11255071Y-14864071D01*
X11226500Y-14849786D01*
X11469357Y-14721214D02*
X11497928Y-14721214D01*
X11526500Y-14735500D01*
X11540786Y-14749786D01*
X11555071Y-14778357D01*
X11569357Y-14835500D01*
X11569357Y-14906929D01*
X11555071Y-14964071D01*
X11540786Y-14992643D01*
X11526500Y-15006929D01*
X11497928Y-15021214D01*
X11469357Y-15021214D01*
X11440786Y-15006929D01*
X11426500Y-14992643D01*
X11412214Y-14964071D01*
X11397928Y-14906929D01*
X11397928Y-14835500D01*
X11412214Y-14778357D01*
X11426500Y-14749786D01*
X11440786Y-14735500D01*
X11469357Y-14721214D01*
X11697928Y-15021214D02*
X11697928Y-14821214D01*
X11697928Y-14849786D02*
X11712214Y-14835500D01*
X11740786Y-14821214D01*
X11783643Y-14821214D01*
X11812214Y-14835500D01*
X11826500Y-14864071D01*
X11826500Y-15021214D01*
X11826500Y-14864071D02*
X11840786Y-14835500D01*
X11869357Y-14821214D01*
X11912214Y-14821214D01*
X11940786Y-14835500D01*
X11955071Y-14864071D01*
X11955071Y-15021214D01*
X12097928Y-15021214D02*
X12097928Y-14821214D01*
X12097928Y-14849786D02*
X12112214Y-14835500D01*
X12140786Y-14821214D01*
X12183643Y-14821214D01*
X12212214Y-14835500D01*
X12226500Y-14864071D01*
X12226500Y-15021214D01*
X12226500Y-14864071D02*
X12240786Y-14835500D01*
X12269357Y-14821214D01*
X12312214Y-14821214D01*
X12340786Y-14835500D01*
X12355071Y-14864071D01*
X12355071Y-15021214D01*
X12940786Y-14706929D02*
X12683643Y-15092643D01*
X13326500Y-14721214D02*
X13355071Y-14721214D01*
X13383643Y-14735500D01*
X13397928Y-14749786D01*
X13412214Y-14778357D01*
X13426500Y-14835500D01*
X13426500Y-14906929D01*
X13412214Y-14964071D01*
X13397928Y-14992643D01*
X13383643Y-15006929D01*
X13355071Y-15021214D01*
X13326500Y-15021214D01*
X13297928Y-15006929D01*
X13283643Y-14992643D01*
X13269357Y-14964071D01*
X13255071Y-14906929D01*
X13255071Y-14835500D01*
X13269357Y-14778357D01*
X13283643Y-14749786D01*
X13297928Y-14735500D01*
X13326500Y-14721214D01*
X13555071Y-14992643D02*
X13569357Y-15006929D01*
X13555071Y-15021214D01*
X13540786Y-15006929D01*
X13555071Y-14992643D01*
X13555071Y-15021214D01*
X13755071Y-14721214D02*
X13783643Y-14721214D01*
X13812214Y-14735500D01*
X13826500Y-14749786D01*
X13840786Y-14778357D01*
X13855071Y-14835500D01*
X13855071Y-14906929D01*
X13840786Y-14964071D01*
X13826500Y-14992643D01*
X13812214Y-15006929D01*
X13783643Y-15021214D01*
X13755071Y-15021214D01*
X13726500Y-15006929D01*
X13712214Y-14992643D01*
X13697928Y-14964071D01*
X13683643Y-14906929D01*
X13683643Y-14835500D01*
X13697928Y-14778357D01*
X13712214Y-14749786D01*
X13726500Y-14735500D01*
X13755071Y-14721214D01*
X13955071Y-14721214D02*
X14140786Y-14721214D01*
X14040786Y-14835500D01*
X14083643Y-14835500D01*
X14112214Y-14849786D01*
X14126500Y-14864071D01*
X14140786Y-14892643D01*
X14140786Y-14964071D01*
X14126500Y-14992643D01*
X14112214Y-15006929D01*
X14083643Y-15021214D01*
X13997928Y-15021214D01*
X13969357Y-15006929D01*
X13955071Y-14992643D01*
X14426500Y-15021214D02*
X14255071Y-15021214D01*
X14340786Y-15021214D02*
X14340786Y-14721214D01*
X14312214Y-14764071D01*
X14283643Y-14792643D01*
X14255071Y-14806929D01*
X14540786Y-14721214D02*
X14540786Y-14778357D01*
X14655071Y-14721214D02*
X14655071Y-14778357D01*
X15097928Y-15135500D02*
X15083643Y-15121214D01*
X15055071Y-15078357D01*
X15040786Y-15049786D01*
X15026500Y-15006929D01*
X15012214Y-14935500D01*
X15012214Y-14878357D01*
X15026500Y-14806929D01*
X15040786Y-14764071D01*
X15055071Y-14735500D01*
X15083643Y-14692643D01*
X15097928Y-14678357D01*
X15183643Y-14721214D02*
X15369357Y-14721214D01*
X15269357Y-14835500D01*
X15312214Y-14835500D01*
X15340786Y-14849786D01*
X15355071Y-14864071D01*
X15369357Y-14892643D01*
X15369357Y-14964071D01*
X15355071Y-14992643D01*
X15340786Y-15006929D01*
X15312214Y-15021214D01*
X15226500Y-15021214D01*
X15197928Y-15006929D01*
X15183643Y-14992643D01*
X15626500Y-14721214D02*
X15569357Y-14721214D01*
X15540786Y-14735500D01*
X15526500Y-14749786D01*
X15497928Y-14792643D01*
X15483643Y-14849786D01*
X15483643Y-14964071D01*
X15497928Y-14992643D01*
X15512214Y-15006929D01*
X15540786Y-15021214D01*
X15597928Y-15021214D01*
X15626500Y-15006929D01*
X15640786Y-14992643D01*
X15655071Y-14964071D01*
X15655071Y-14892643D01*
X15640786Y-14864071D01*
X15626500Y-14849786D01*
X15597928Y-14835500D01*
X15540786Y-14835500D01*
X15512214Y-14849786D01*
X15497928Y-14864071D01*
X15483643Y-14892643D01*
X16012214Y-15021214D02*
X16012214Y-14721214D01*
X16140786Y-15021214D02*
X16140786Y-14864071D01*
X16126500Y-14835500D01*
X16097928Y-14821214D01*
X16055071Y-14821214D01*
X16026500Y-14835500D01*
X16012214Y-14849786D01*
X16326500Y-15021214D02*
X16297928Y-15006929D01*
X16283643Y-14992643D01*
X16269357Y-14964071D01*
X16269357Y-14878357D01*
X16283643Y-14849786D01*
X16297928Y-14835500D01*
X16326500Y-14821214D01*
X16369357Y-14821214D01*
X16397928Y-14835500D01*
X16412214Y-14849786D01*
X16426500Y-14878357D01*
X16426500Y-14964071D01*
X16412214Y-14992643D01*
X16397928Y-15006929D01*
X16369357Y-15021214D01*
X16326500Y-15021214D01*
X16597928Y-15021214D02*
X16569357Y-15006929D01*
X16555071Y-14978357D01*
X16555071Y-14721214D01*
X16826500Y-15006929D02*
X16797928Y-15021214D01*
X16740786Y-15021214D01*
X16712214Y-15006929D01*
X16697928Y-14978357D01*
X16697928Y-14864071D01*
X16712214Y-14835500D01*
X16740786Y-14821214D01*
X16797928Y-14821214D01*
X16826500Y-14835500D01*
X16840786Y-14864071D01*
X16840786Y-14892643D01*
X16697928Y-14921214D01*
X16955071Y-15006929D02*
X16983643Y-15021214D01*
X17040786Y-15021214D01*
X17069357Y-15006929D01*
X17083643Y-14978357D01*
X17083643Y-14964071D01*
X17069357Y-14935500D01*
X17040786Y-14921214D01*
X16997928Y-14921214D01*
X16969357Y-14906929D01*
X16955071Y-14878357D01*
X16955071Y-14864071D01*
X16969357Y-14835500D01*
X16997928Y-14821214D01*
X17040786Y-14821214D01*
X17069357Y-14835500D01*
X17183643Y-15135500D02*
X17197928Y-15121214D01*
X17226500Y-15078357D01*
X17240786Y-15049786D01*
X17255071Y-15006929D01*
X17269357Y-14935500D01*
X17269357Y-14878357D01*
X17255071Y-14806929D01*
X17240786Y-14764071D01*
X17226500Y-14735500D01*
X17197928Y-14692643D01*
X17183643Y-14678357D01*
X10361500Y-15231500D02*
X10361500Y-15331500D01*
X10311500Y-15281500D02*
X10411500Y-15281500D01*
X10855071Y-15417214D02*
X10683643Y-15417214D01*
X10769357Y-15417214D02*
X10769357Y-15117214D01*
X10740786Y-15160071D01*
X10712214Y-15188643D01*
X10683643Y-15202929D01*
X10983643Y-15388643D02*
X10997928Y-15402929D01*
X10983643Y-15417214D01*
X10969357Y-15402929D01*
X10983643Y-15388643D01*
X10983643Y-15417214D01*
X11183643Y-15117214D02*
X11212214Y-15117214D01*
X11240786Y-15131500D01*
X11255071Y-15145786D01*
X11269357Y-15174357D01*
X11283643Y-15231500D01*
X11283643Y-15302929D01*
X11269357Y-15360071D01*
X11255071Y-15388643D01*
X11240786Y-15402929D01*
X11212214Y-15417214D01*
X11183643Y-15417214D01*
X11155071Y-15402929D01*
X11140786Y-15388643D01*
X11126500Y-15360071D01*
X11112214Y-15302929D01*
X11112214Y-15231500D01*
X11126500Y-15174357D01*
X11140786Y-15145786D01*
X11155071Y-15131500D01*
X11183643Y-15117214D01*
X11469357Y-15117214D02*
X11497928Y-15117214D01*
X11526500Y-15131500D01*
X11540786Y-15145786D01*
X11555071Y-15174357D01*
X11569357Y-15231500D01*
X11569357Y-15302929D01*
X11555071Y-15360071D01*
X11540786Y-15388643D01*
X11526500Y-15402929D01*
X11497928Y-15417214D01*
X11469357Y-15417214D01*
X11440786Y-15402929D01*
X11426500Y-15388643D01*
X11412214Y-15360071D01*
X11397928Y-15302929D01*
X11397928Y-15231500D01*
X11412214Y-15174357D01*
X11426500Y-15145786D01*
X11440786Y-15131500D01*
X11469357Y-15117214D01*
X11697928Y-15417214D02*
X11697928Y-15217214D01*
X11697928Y-15245786D02*
X11712214Y-15231500D01*
X11740786Y-15217214D01*
X11783643Y-15217214D01*
X11812214Y-15231500D01*
X11826500Y-15260071D01*
X11826500Y-15417214D01*
X11826500Y-15260071D02*
X11840786Y-15231500D01*
X11869357Y-15217214D01*
X11912214Y-15217214D01*
X11940786Y-15231500D01*
X11955071Y-15260071D01*
X11955071Y-15417214D01*
X12097928Y-15417214D02*
X12097928Y-15217214D01*
X12097928Y-15245786D02*
X12112214Y-15231500D01*
X12140786Y-15217214D01*
X12183643Y-15217214D01*
X12212214Y-15231500D01*
X12226500Y-15260071D01*
X12226500Y-15417214D01*
X12226500Y-15260071D02*
X12240786Y-15231500D01*
X12269357Y-15217214D01*
X12312214Y-15217214D01*
X12340786Y-15231500D01*
X12355071Y-15260071D01*
X12355071Y-15417214D01*
X12940786Y-15102929D02*
X12683643Y-15488643D01*
X13326500Y-15117214D02*
X13355071Y-15117214D01*
X13383643Y-15131500D01*
X13397928Y-15145786D01*
X13412214Y-15174357D01*
X13426500Y-15231500D01*
X13426500Y-15302929D01*
X13412214Y-15360071D01*
X13397928Y-15388643D01*
X13383643Y-15402929D01*
X13355071Y-15417214D01*
X13326500Y-15417214D01*
X13297928Y-15402929D01*
X13283643Y-15388643D01*
X13269357Y-15360071D01*
X13255071Y-15302929D01*
X13255071Y-15231500D01*
X13269357Y-15174357D01*
X13283643Y-15145786D01*
X13297928Y-15131500D01*
X13326500Y-15117214D01*
X13555071Y-15388643D02*
X13569357Y-15402929D01*
X13555071Y-15417214D01*
X13540786Y-15402929D01*
X13555071Y-15388643D01*
X13555071Y-15417214D01*
X13755071Y-15117214D02*
X13783643Y-15117214D01*
X13812214Y-15131500D01*
X13826500Y-15145786D01*
X13840786Y-15174357D01*
X13855071Y-15231500D01*
X13855071Y-15302929D01*
X13840786Y-15360071D01*
X13826500Y-15388643D01*
X13812214Y-15402929D01*
X13783643Y-15417214D01*
X13755071Y-15417214D01*
X13726500Y-15402929D01*
X13712214Y-15388643D01*
X13697928Y-15360071D01*
X13683643Y-15302929D01*
X13683643Y-15231500D01*
X13697928Y-15174357D01*
X13712214Y-15145786D01*
X13726500Y-15131500D01*
X13755071Y-15117214D01*
X13955071Y-15117214D02*
X14140786Y-15117214D01*
X14040786Y-15231500D01*
X14083643Y-15231500D01*
X14112214Y-15245786D01*
X14126500Y-15260071D01*
X14140786Y-15288643D01*
X14140786Y-15360071D01*
X14126500Y-15388643D01*
X14112214Y-15402929D01*
X14083643Y-15417214D01*
X13997928Y-15417214D01*
X13969357Y-15402929D01*
X13955071Y-15388643D01*
X14283643Y-15417214D02*
X14340786Y-15417214D01*
X14369357Y-15402929D01*
X14383643Y-15388643D01*
X14412214Y-15345786D01*
X14426500Y-15288643D01*
X14426500Y-15174357D01*
X14412214Y-15145786D01*
X14397928Y-15131500D01*
X14369357Y-15117214D01*
X14312214Y-15117214D01*
X14283643Y-15131500D01*
X14269357Y-15145786D01*
X14255071Y-15174357D01*
X14255071Y-15245786D01*
X14269357Y-15274357D01*
X14283643Y-15288643D01*
X14312214Y-15302929D01*
X14369357Y-15302929D01*
X14397928Y-15288643D01*
X14412214Y-15274357D01*
X14426500Y-15245786D01*
X14540786Y-15117214D02*
X14540786Y-15174357D01*
X14655071Y-15117214D02*
X14655071Y-15174357D01*
X15097928Y-15531500D02*
X15083643Y-15517214D01*
X15055071Y-15474357D01*
X15040786Y-15445786D01*
X15026500Y-15402929D01*
X15012214Y-15331500D01*
X15012214Y-15274357D01*
X15026500Y-15202929D01*
X15040786Y-15160071D01*
X15055071Y-15131500D01*
X15083643Y-15088643D01*
X15097928Y-15074357D01*
X15369357Y-15417214D02*
X15197928Y-15417214D01*
X15283643Y-15417214D02*
X15283643Y-15117214D01*
X15255071Y-15160071D01*
X15226500Y-15188643D01*
X15197928Y-15202929D01*
X15626500Y-15117214D02*
X15569357Y-15117214D01*
X15540786Y-15131500D01*
X15526500Y-15145786D01*
X15497928Y-15188643D01*
X15483643Y-15245786D01*
X15483643Y-15360071D01*
X15497928Y-15388643D01*
X15512214Y-15402929D01*
X15540786Y-15417214D01*
X15597928Y-15417214D01*
X15626500Y-15402929D01*
X15640786Y-15388643D01*
X15655071Y-15360071D01*
X15655071Y-15288643D01*
X15640786Y-15260071D01*
X15626500Y-15245786D01*
X15597928Y-15231500D01*
X15540786Y-15231500D01*
X15512214Y-15245786D01*
X15497928Y-15260071D01*
X15483643Y-15288643D01*
X16012214Y-15417214D02*
X16012214Y-15117214D01*
X16140786Y-15417214D02*
X16140786Y-15260071D01*
X16126500Y-15231500D01*
X16097928Y-15217214D01*
X16055071Y-15217214D01*
X16026500Y-15231500D01*
X16012214Y-15245786D01*
X16326500Y-15417214D02*
X16297928Y-15402929D01*
X16283643Y-15388643D01*
X16269357Y-15360071D01*
X16269357Y-15274357D01*
X16283643Y-15245786D01*
X16297928Y-15231500D01*
X16326500Y-15217214D01*
X16369357Y-15217214D01*
X16397928Y-15231500D01*
X16412214Y-15245786D01*
X16426500Y-15274357D01*
X16426500Y-15360071D01*
X16412214Y-15388643D01*
X16397928Y-15402929D01*
X16369357Y-15417214D01*
X16326500Y-15417214D01*
X16597928Y-15417214D02*
X16569357Y-15402929D01*
X16555071Y-15374357D01*
X16555071Y-15117214D01*
X16826500Y-15402929D02*
X16797928Y-15417214D01*
X16740786Y-15417214D01*
X16712214Y-15402929D01*
X16697928Y-15374357D01*
X16697928Y-15260071D01*
X16712214Y-15231500D01*
X16740786Y-15217214D01*
X16797928Y-15217214D01*
X16826500Y-15231500D01*
X16840786Y-15260071D01*
X16840786Y-15288643D01*
X16697928Y-15317214D01*
X16955071Y-15402929D02*
X16983643Y-15417214D01*
X17040786Y-15417214D01*
X17069357Y-15402929D01*
X17083643Y-15374357D01*
X17083643Y-15360071D01*
X17069357Y-15331500D01*
X17040786Y-15317214D01*
X16997928Y-15317214D01*
X16969357Y-15302929D01*
X16955071Y-15274357D01*
X16955071Y-15260071D01*
X16969357Y-15231500D01*
X16997928Y-15217214D01*
X17040786Y-15217214D01*
X17069357Y-15231500D01*
X17183643Y-15531500D02*
X17197928Y-15517214D01*
X17226500Y-15474357D01*
X17240786Y-15445786D01*
X17255071Y-15402929D01*
X17269357Y-15331500D01*
X17269357Y-15274357D01*
X17255071Y-15202929D01*
X17240786Y-15160071D01*
X17226500Y-15131500D01*
X17197928Y-15088643D01*
X17183643Y-15074357D01*
X10379282Y-15755283D02*
X10379282Y-15599718D01*
X10223717Y-15599718D01*
X10223717Y-15755283D01*
X10379282Y-15755283D01*
X10683643Y-15541786D02*
X10697928Y-15527500D01*
X10726500Y-15513214D01*
X10797928Y-15513214D01*
X10826500Y-15527500D01*
X10840786Y-15541786D01*
X10855071Y-15570357D01*
X10855071Y-15598929D01*
X10840786Y-15641786D01*
X10669357Y-15813214D01*
X10855071Y-15813214D01*
X10983643Y-15784643D02*
X10997928Y-15798929D01*
X10983643Y-15813214D01*
X10969357Y-15798929D01*
X10983643Y-15784643D01*
X10983643Y-15813214D01*
X11112214Y-15541786D02*
X11126500Y-15527500D01*
X11155071Y-15513214D01*
X11226500Y-15513214D01*
X11255071Y-15527500D01*
X11269357Y-15541786D01*
X11283643Y-15570357D01*
X11283643Y-15598929D01*
X11269357Y-15641786D01*
X11097928Y-15813214D01*
X11283643Y-15813214D01*
X11469357Y-15513214D02*
X11497928Y-15513214D01*
X11526500Y-15527500D01*
X11540786Y-15541786D01*
X11555071Y-15570357D01*
X11569357Y-15627500D01*
X11569357Y-15698929D01*
X11555071Y-15756071D01*
X11540786Y-15784643D01*
X11526500Y-15798929D01*
X11497928Y-15813214D01*
X11469357Y-15813214D01*
X11440786Y-15798929D01*
X11426500Y-15784643D01*
X11412214Y-15756071D01*
X11397928Y-15698929D01*
X11397928Y-15627500D01*
X11412214Y-15570357D01*
X11426500Y-15541786D01*
X11440786Y-15527500D01*
X11469357Y-15513214D01*
X11697928Y-15813214D02*
X11697928Y-15613214D01*
X11697928Y-15641786D02*
X11712214Y-15627500D01*
X11740786Y-15613214D01*
X11783643Y-15613214D01*
X11812214Y-15627500D01*
X11826500Y-15656071D01*
X11826500Y-15813214D01*
X11826500Y-15656071D02*
X11840786Y-15627500D01*
X11869357Y-15613214D01*
X11912214Y-15613214D01*
X11940786Y-15627500D01*
X11955071Y-15656071D01*
X11955071Y-15813214D01*
X12097928Y-15813214D02*
X12097928Y-15613214D01*
X12097928Y-15641786D02*
X12112214Y-15627500D01*
X12140786Y-15613214D01*
X12183643Y-15613214D01*
X12212214Y-15627500D01*
X12226500Y-15656071D01*
X12226500Y-15813214D01*
X12226500Y-15656071D02*
X12240786Y-15627500D01*
X12269357Y-15613214D01*
X12312214Y-15613214D01*
X12340786Y-15627500D01*
X12355071Y-15656071D01*
X12355071Y-15813214D01*
X12940786Y-15498929D02*
X12683643Y-15884643D01*
X13326500Y-15513214D02*
X13355071Y-15513214D01*
X13383643Y-15527500D01*
X13397928Y-15541786D01*
X13412214Y-15570357D01*
X13426500Y-15627500D01*
X13426500Y-15698929D01*
X13412214Y-15756071D01*
X13397928Y-15784643D01*
X13383643Y-15798929D01*
X13355071Y-15813214D01*
X13326500Y-15813214D01*
X13297928Y-15798929D01*
X13283643Y-15784643D01*
X13269357Y-15756071D01*
X13255071Y-15698929D01*
X13255071Y-15627500D01*
X13269357Y-15570357D01*
X13283643Y-15541786D01*
X13297928Y-15527500D01*
X13326500Y-15513214D01*
X13555071Y-15784643D02*
X13569357Y-15798929D01*
X13555071Y-15813214D01*
X13540786Y-15798929D01*
X13555071Y-15784643D01*
X13555071Y-15813214D01*
X13755071Y-15513214D02*
X13783643Y-15513214D01*
X13812214Y-15527500D01*
X13826500Y-15541786D01*
X13840786Y-15570357D01*
X13855071Y-15627500D01*
X13855071Y-15698929D01*
X13840786Y-15756071D01*
X13826500Y-15784643D01*
X13812214Y-15798929D01*
X13783643Y-15813214D01*
X13755071Y-15813214D01*
X13726500Y-15798929D01*
X13712214Y-15784643D01*
X13697928Y-15756071D01*
X13683643Y-15698929D01*
X13683643Y-15627500D01*
X13697928Y-15570357D01*
X13712214Y-15541786D01*
X13726500Y-15527500D01*
X13755071Y-15513214D01*
X14026500Y-15641786D02*
X13997928Y-15627500D01*
X13983643Y-15613214D01*
X13969357Y-15584643D01*
X13969357Y-15570357D01*
X13983643Y-15541786D01*
X13997928Y-15527500D01*
X14026500Y-15513214D01*
X14083643Y-15513214D01*
X14112214Y-15527500D01*
X14126500Y-15541786D01*
X14140786Y-15570357D01*
X14140786Y-15584643D01*
X14126500Y-15613214D01*
X14112214Y-15627500D01*
X14083643Y-15641786D01*
X14026500Y-15641786D01*
X13997928Y-15656071D01*
X13983643Y-15670357D01*
X13969357Y-15698929D01*
X13969357Y-15756071D01*
X13983643Y-15784643D01*
X13997928Y-15798929D01*
X14026500Y-15813214D01*
X14083643Y-15813214D01*
X14112214Y-15798929D01*
X14126500Y-15784643D01*
X14140786Y-15756071D01*
X14140786Y-15698929D01*
X14126500Y-15670357D01*
X14112214Y-15656071D01*
X14083643Y-15641786D01*
X14240786Y-15513214D02*
X14440786Y-15513214D01*
X14312214Y-15813214D01*
X14540786Y-15513214D02*
X14540786Y-15570357D01*
X14655071Y-15513214D02*
X14655071Y-15570357D01*
X15097928Y-15927500D02*
X15083643Y-15913214D01*
X15055071Y-15870357D01*
X15040786Y-15841786D01*
X15026500Y-15798929D01*
X15012214Y-15727500D01*
X15012214Y-15670357D01*
X15026500Y-15598929D01*
X15040786Y-15556071D01*
X15055071Y-15527500D01*
X15083643Y-15484643D01*
X15097928Y-15470357D01*
X15340786Y-15613214D02*
X15340786Y-15813214D01*
X15269357Y-15498929D02*
X15197928Y-15713214D01*
X15383643Y-15713214D01*
X15726500Y-15813214D02*
X15726500Y-15513214D01*
X15855071Y-15813214D02*
X15855071Y-15656071D01*
X15840786Y-15627500D01*
X15812214Y-15613214D01*
X15769357Y-15613214D01*
X15740786Y-15627500D01*
X15726500Y-15641786D01*
X16040786Y-15813214D02*
X16012214Y-15798929D01*
X15997928Y-15784643D01*
X15983643Y-15756071D01*
X15983643Y-15670357D01*
X15997928Y-15641786D01*
X16012214Y-15627500D01*
X16040786Y-15613214D01*
X16083643Y-15613214D01*
X16112214Y-15627500D01*
X16126500Y-15641786D01*
X16140786Y-15670357D01*
X16140786Y-15756071D01*
X16126500Y-15784643D01*
X16112214Y-15798929D01*
X16083643Y-15813214D01*
X16040786Y-15813214D01*
X16312214Y-15813214D02*
X16283643Y-15798929D01*
X16269357Y-15770357D01*
X16269357Y-15513214D01*
X16540786Y-15798929D02*
X16512214Y-15813214D01*
X16455071Y-15813214D01*
X16426500Y-15798929D01*
X16412214Y-15770357D01*
X16412214Y-15656071D01*
X16426500Y-15627500D01*
X16455071Y-15613214D01*
X16512214Y-15613214D01*
X16540786Y-15627500D01*
X16555071Y-15656071D01*
X16555071Y-15684643D01*
X16412214Y-15713214D01*
X16669357Y-15798929D02*
X16697928Y-15813214D01*
X16755071Y-15813214D01*
X16783643Y-15798929D01*
X16797928Y-15770357D01*
X16797928Y-15756071D01*
X16783643Y-15727500D01*
X16755071Y-15713214D01*
X16712214Y-15713214D01*
X16683643Y-15698929D01*
X16669357Y-15670357D01*
X16669357Y-15656071D01*
X16683643Y-15627500D01*
X16712214Y-15613214D01*
X16755071Y-15613214D01*
X16783643Y-15627500D01*
X16897928Y-15927500D02*
X16912214Y-15913214D01*
X16940786Y-15870357D01*
X16955071Y-15841786D01*
X16969357Y-15798929D01*
X16983643Y-15727500D01*
X16983643Y-15670357D01*
X16969357Y-15598929D01*
X16955071Y-15556071D01*
X16940786Y-15527500D01*
X16912214Y-15484643D01*
X16897928Y-15470357D01*
M02*
